HIERARCHY
ROOT Hips
{
    OFFSET   0.000000   0.000000   0.000000
    CHANNELS 6 Xposition Yposition Zposition Zrotation Xrotation Yrotation
    JOINT Chest
    {
        OFFSET   0.000000   8.007230   0.000000
        CHANNELS 3 Zrotation Xrotation Yrotation
        JOINT Chest2
        {
            OFFSET   0.000000  22.077100   0.000000
            CHANNELS 3 Zrotation Xrotation Yrotation
            JOINT Neck
            {
                OFFSET   0.000000  23.254800   0.000000
                CHANNELS 3 Zrotation Xrotation Yrotation
                JOINT Head
                {
                    OFFSET   0.000010  14.370000   1.956600
                    CHANNELS 3 Zrotation Xrotation Yrotation
                    End Site
                    {
                        OFFSET   0.000000  19.566000   0.000000
                    }
                }
            }
            JOINT LeftCollar
            {
                OFFSET   3.911900  19.017000  -0.467062
                CHANNELS 3 Zrotation Xrotation Yrotation
                JOINT LeftShoulder
                {
                    OFFSET  10.383700   0.000000   0.000000
                    CHANNELS 3 Zrotation Xrotation Yrotation
                    JOINT LeftElbow
                    {
                        OFFSET  26.662100   0.001193   0.000835
                        CHANNELS 3 Zrotation Xrotation Yrotation
                        JOINT LeftWrist
                        {
                            OFFSET  28.869000  -0.000058  -0.000075
                            CHANNELS 3 Zrotation Xrotation Yrotation
                            JOINT LeftFinger0
                            {
                                OFFSET   2.044660  -2.323460   3.252850
                                CHANNELS 3 Zrotation Xrotation Yrotation
                                JOINT LeftFinger01
                                {
                                    OFFSET   3.088130   0.000000   0.000000
                                    CHANNELS 3 Zrotation Xrotation Yrotation
                                    JOINT LeftFinger02
                                    {
                                        OFFSET   2.639450   0.000000   0.000000
                                        CHANNELS 3 Zrotation Xrotation Yrotation
                                        End Site
                                        {
                                            OFFSET   2.582190   0.000000   0.000000
                                        }
                                    }
                                }
                            }
                            JOINT LeftFinger1
                            {
                                OFFSET   8.364480   0.000000   3.252850
                                CHANNELS 3 Zrotation Xrotation Yrotation
                                JOINT LeftFinger11
                                {
                                    OFFSET   4.646920   0.000000   0.000000
                                    CHANNELS 3 Zrotation Xrotation Yrotation
                                    JOINT LeftFinger12
                                    {
                                        OFFSET   2.323460   0.000000   0.000000
                                        CHANNELS 3 Zrotation Xrotation Yrotation
                                        End Site
                                        {
                                            OFFSET   2.273050   0.000000   0.000000
                                        }
                                    }
                                }
                            }
                            JOINT LeftFinger2
                            {
                                OFFSET   8.364490   0.000016   1.078090
                                CHANNELS 3 Zrotation Xrotation Yrotation
                                JOINT LeftFinger21
                                {
                                    OFFSET   5.111620   0.000000   0.000000
                                    CHANNELS 3 Zrotation Xrotation Yrotation
                                    JOINT LeftFinger22
                                    {
                                        OFFSET   2.788150   0.000012   0.000000
                                        CHANNELS 3 Zrotation Xrotation Yrotation
                                        End Site
                                        {
                                            OFFSET   2.727660   0.000000   0.000000
                                        }
                                    }
                                }
                            }
                            JOINT LeftFinger3
                            {
                                OFFSET   7.899780   0.000014  -1.078090
                                CHANNELS 3 Zrotation Xrotation Yrotation
                                JOINT LeftFinger31
                                {
                                    OFFSET   4.646930   0.000000   0.000000
                                    CHANNELS 3 Zrotation Xrotation Yrotation
                                    JOINT LeftFinger32
                                    {
                                        OFFSET   2.323470   0.000000   0.000000
                                        CHANNELS 3 Zrotation Xrotation Yrotation
                                        End Site
                                        {
                                            OFFSET   2.273050   0.000000   0.000000
                                        }
                                    }
                                }
                            }
                            JOINT LeftFinger4
                            {
                                OFFSET   7.435090   0.000000  -3.252850
                                CHANNELS 3 Zrotation Xrotation Yrotation
                                JOINT LeftFinger41
                                {
                                    OFFSET   3.717550   0.000000   0.000000
                                    CHANNELS 3 Zrotation Xrotation Yrotation
                                    JOINT LeftFinger42
                                    {
                                        OFFSET   1.858770   0.000000   0.000000
                                        CHANNELS 3 Zrotation Xrotation Yrotation
                                        End Site
                                        {
                                            OFFSET   1.818440   0.000000   0.000000
                                        }
                                    }
                                }
                            }
                        }
                    }
                }
            }
            JOINT RightCollar
            {
                OFFSET  -3.911900  19.017000  -0.467063
                CHANNELS 3 Zrotation Xrotation Yrotation
                JOINT RightShoulder
                {
                    OFFSET -10.383700   0.000023   0.000000
                    CHANNELS 3 Zrotation Xrotation Yrotation
                    JOINT RightElbow
                    {
                        OFFSET -26.662100   0.001246   0.001011
                        CHANNELS 3 Zrotation Xrotation Yrotation
                        JOINT RightWrist
                        {
                            OFFSET -28.869000  -0.000026  -0.000078
                            CHANNELS 3 Zrotation Xrotation Yrotation
                            JOINT RightFinger0
                            {
                                OFFSET  -2.044660  -2.323490   3.252850
                                CHANNELS 3 Zrotation Xrotation Yrotation
                                JOINT RightFinger01
                                {
                                    OFFSET  -3.088130   0.000000   0.000000
                                    CHANNELS 3 Zrotation Xrotation Yrotation
                                    JOINT RightFinger02
                                    {
                                        OFFSET  -2.639460   0.000000   0.000000
                                        CHANNELS 3 Zrotation Xrotation Yrotation
                                        End Site
                                        {
                                            OFFSET  -2.582190   0.000000   0.000000
                                        }
                                    }
                                }
                            }
                            JOINT RightFinger1
                            {
                                OFFSET  -8.364480   0.000000   3.252850
                                CHANNELS 3 Zrotation Xrotation Yrotation
                                JOINT RightFinger11
                                {
                                    OFFSET  -4.646920   0.000000   0.000000
                                    CHANNELS 3 Zrotation Xrotation Yrotation
                                    JOINT RightFinger12
                                    {
                                        OFFSET  -2.323470   0.000000   0.000000
                                        CHANNELS 3 Zrotation Xrotation Yrotation
                                        End Site
                                        {
                                            OFFSET  -2.273050   0.000000   0.000000
                                        }
                                    }
                                }
                            }
                            JOINT RightFinger2
                            {
                                OFFSET  -8.364480   0.000000   1.078090
                                CHANNELS 3 Zrotation Xrotation Yrotation
                                JOINT RightFinger21
                                {
                                    OFFSET  -5.111620   0.000000   0.000000
                                    CHANNELS 3 Zrotation Xrotation Yrotation
                                    JOINT RightFinger22
                                    {
                                        OFFSET  -2.788160   0.000000   0.000000
                                        CHANNELS 3 Zrotation Xrotation Yrotation
                                        End Site
                                        {
                                            OFFSET  -2.727660   0.000000   0.000000
                                        }
                                    }
                                }
                            }
                            JOINT RightFinger3
                            {
                                OFFSET  -7.899780   0.000000  -1.078090
                                CHANNELS 3 Zrotation Xrotation Yrotation
                                JOINT RightFinger31
                                {
                                    OFFSET  -4.646930   0.000000   0.000000
                                    CHANNELS 3 Zrotation Xrotation Yrotation
                                    JOINT RightFinger32
                                    {
                                        OFFSET  -2.323470   0.000000   0.000000
                                        CHANNELS 3 Zrotation Xrotation Yrotation
                                        End Site
                                        {
                                            OFFSET  -2.273050   0.000000   0.000000
                                        }
                                    }
                                }
                            }
                            JOINT RightFinger4
                            {
                                OFFSET  -7.435090   0.000000  -3.252850
                                CHANNELS 3 Zrotation Xrotation Yrotation
                                JOINT RightFinger41
                                {
                                    OFFSET  -3.717550   0.000000   0.000000
                                    CHANNELS 3 Zrotation Xrotation Yrotation
                                    JOINT RightFinger42
                                    {
                                        OFFSET  -1.858760   0.000000   0.000000
                                        CHANNELS 3 Zrotation Xrotation Yrotation
                                        End Site
                                        {
                                            OFFSET  -1.818440   0.000000   0.000000
                                        }
                                    }
                                }
                            }
                        }
                    }
                }
            }
        }
    }
    JOINT LeftHip
    {
        OFFSET   9.783010   0.000000   0.000000
        CHANNELS 3 Zrotation Xrotation Yrotation
        JOINT LeftKnee
        {
            OFFSET   0.000073 -41.789100   0.001749
            CHANNELS 3 Zrotation Xrotation Yrotation
            JOINT LeftAnkle
            {
                OFFSET   0.000111 -41.133200  -0.000179
                CHANNELS 3 Zrotation Xrotation Yrotation
                JOINT LeftToe
                {
                    OFFSET   0.000000  -6.358960  14.674500
                    CHANNELS 3 Zrotation Xrotation Yrotation
                    End Site
                    {
                        OFFSET   0.000000   0.000000   3.913200
                    }
                }
            }
        }
    }
    JOINT RightHip
    {
        OFFSET  -9.783010   0.000000   0.000000
        CHANNELS 3 Zrotation Xrotation Yrotation
        JOINT RightKnee
        {
            OFFSET   0.000424 -41.789200   0.005205
            CHANNELS 3 Zrotation Xrotation Yrotation
            JOINT RightAnkle
            {
                OFFSET   0.000000 -41.133200  -0.000155
                CHANNELS 3 Zrotation Xrotation Yrotation
                JOINT RightToe
                {
                    OFFSET   0.000000  -6.358960  14.674500
                    CHANNELS 3 Zrotation Xrotation Yrotation
                    End Site
                    {
                        OFFSET   0.000000   0.000000   3.913200
                    }
                }
            }
        }
    }
}
MOTION
Frames: 6
Frame Time:   0.016667
  8.302690  89.772600   1.408060   4.459920 -27.668600  24.541900  -3.623210  11.550400   5.893990  -8.732990  22.624700  12.929800   6.552180   1.724060  -0.196434  10.790600   3.360010 -21.688700  -4.405290 -10.384200  -6.053000 -64.466400  27.965600 -12.740600   3.056540   4.859100 -11.337500  12.222500   3.759030   1.787630  40.782400  35.349000 -70.900300 -28.930500  -0.001384  -0.000199  -9.465240   0.013123  -0.048865 -28.359500   4.325720  -7.948800 -23.455900  -0.002140   0.000880 -16.419000  -0.120072   0.043997 -27.765900  -1.927070   3.656020 -30.919600   0.003655   0.002590 -20.592500  -0.002317   0.000624 -28.260600  -1.958830   3.639100 -34.360700   0.001859   0.002005 -22.884300   0.001399   0.003953 -30.494900  -2.101510   3.558840 -45.839900   0.002839   0.001241 -30.529400   0.001836  -0.000731   2.203870 -13.585100   3.796310   5.164550 -36.580600  66.100400 -20.616600   3.560700   7.722480  -2.986240 -39.900200   9.938270 -36.952600  32.066200  63.412300  34.139500   0.003210  -0.005377  12.069700   0.001488  -0.002770  88.996400   4.998610   0.084672  85.235800  -0.000127   0.004353  63.926800   0.001506   0.001081  89.000000   0.000373  -0.008764 110.000000   0.004838   0.001321  80.000000   0.007130  -0.002990  88.996000  -5.005480  -0.090021 109.588000   0.001791   0.006677  79.999900   0.004333  -0.000539  88.984100 -10.007700  -0.179250 110.000000  -0.007019   0.000419  79.999900   0.002350   0.006827   0.756241  24.422200  -2.533930   4.111510   7.221850  -1.311960  -1.549550  -5.305160  -6.316260  -0.000000   0.000000  -0.000000   0.052267   5.687370  -1.869010   4.663130  49.568900 -32.360300   2.909650  11.598500   7.210760  -0.000000   0.000000   0.000000
  8.428080  89.851600   1.287290   4.455160 -27.590000  24.645100  -3.600730  11.500100   5.840690  -8.663580  22.532000  12.808100   6.593810   1.701210  -0.196575  10.857900   3.313480 -21.682300  -4.337000 -10.424500  -5.981950 -64.774000  27.713400 -12.250000   2.979530   4.616000 -11.058800  11.888200   4.103150   1.836190  41.132200  35.676700 -71.430000 -28.716800  -0.001377  -0.000201  -9.358410  -0.007087  -0.020106 -28.216300   4.615030  -8.528720 -23.366700  -0.002143   0.000885 -16.356800  -0.215313  -0.032349 -27.767400  -1.777720   3.372670 -30.896200   0.003655   0.002589 -20.576900  -0.002316   0.000623 -28.239700  -1.805520   3.357940 -34.136300   0.001859   0.002002 -22.734800   0.001397   0.003954 -30.349400  -1.929060   3.288820 -45.607600   0.002844   0.001243 -30.374700   0.001835  -0.000732   2.256390 -13.553000   3.924330   5.049040 -36.564900  66.142500 -20.585000   3.850420   7.615350  -2.993260 -39.781200   9.911930 -36.995400  32.140000  63.564400  34.100600   0.003079  -0.005415  12.050300   0.001836  -0.002771  88.996400   4.998580   0.084626  85.163400  -0.000116   0.004515  63.872600   0.001466   0.000995  89.000000   0.000354  -0.008727 110.000000   0.004700   0.001485  80.000000   0.006998  -0.002909  88.996000  -5.005500  -0.090053 109.524000   0.001721   0.006577  79.999900   0.004231  -0.000435  88.984100 -10.007700  -0.179334 110.000000  -0.007043   0.000444  79.999900   0.002411   0.006803   0.723160  24.352600  -2.697390   4.061690   7.242070  -1.368290  -1.493620  -5.337000  -6.186010  -0.000000   0.000000  -0.000000   0.254098   5.693190  -1.767340   4.522640  49.521700 -32.407000   2.825820  11.648000   6.747900  -0.000000   0.000000   0.000000
  8.553830  89.933200   1.171840   4.447490 -27.512100  24.658300  -3.587760  11.462800   5.802930  -8.621560  22.462500  12.722400   6.632490   1.648380  -0.192350  10.916600   3.209140 -21.684400  -4.334380 -10.491600  -6.006570 -64.866000  27.783400 -11.807600   2.891510   4.162840 -10.863100  11.631200   4.531140   1.824980  41.459400  35.888500 -71.609000 -28.561700  -0.001379  -0.000204  -9.280870  -0.004691  -0.005256 -28.018700   4.751710  -8.861930 -23.226000  -0.002142   0.000880 -16.258400  -0.221800  -0.073575 -27.735400  -1.678420   3.187440 -30.702400   0.003655   0.002589 -20.447900  -0.002316   0.000623 -28.199300  -1.704580   3.173620 -33.768700   0.001860   0.002003 -22.489900   0.001397   0.003955 -30.107600  -1.812180   3.113760 -45.235200   0.002842   0.001242 -30.126700   0.001837  -0.000732   2.286030 -13.572900   4.006670   4.773720 -36.465400  66.028500 -20.474800   4.098070   7.487270  -3.032870 -39.776000   9.999990 -37.144100  32.413200  63.793600  34.086400   0.002931  -0.005440  12.043200   0.002209  -0.002773  88.996500   4.998550   0.084583  85.050600  -0.000121   0.004678  63.787900   0.001420   0.000904  89.000000   0.000328  -0.008690 110.000000   0.004561   0.001644  80.000000   0.006866  -0.002824  88.996000  -5.005530  -0.090092 109.426000   0.001644   0.006471  79.999900   0.004130  -0.000328  88.984100 -10.007700  -0.179418 110.000000  -0.007069   0.000458  79.999900   0.002478   0.006787   0.637657  24.303600  -2.861520   4.022660   7.240040  -1.333060  -1.459500  -5.366150  -6.058100  -0.000000   0.000000   0.000000   0.447529   5.716070  -1.729610   4.209950  49.433300 -32.265100   2.823810  11.620200   6.336220   0.000000   0.000000   0.000000
  8.674620  90.012100   1.062650   4.450910 -27.430000  24.643200  -3.577620  11.433900   5.774900  -8.591620  22.408800  12.658500   6.653510   1.579790  -0.184253  10.952700   3.074530 -21.685800  -4.348230 -10.555300  -6.056640 -64.856800  27.849900 -11.390700   2.808420   3.697500 -10.728100  11.498800   4.837810   1.802660  41.566000  35.992900 -71.645900 -28.467300  -0.001384  -0.000206  -9.233660   0.005612  -0.000100 -27.830300   4.803270  -9.012470 -23.080200  -0.002139   0.000876 -16.156400  -0.222727  -0.091286 -27.695100  -1.624260   3.090790 -30.443200   0.003655   0.002589 -20.275200  -0.002317   0.000622 -28.152200  -1.648920   3.077750 -33.385200   0.001862   0.002004 -22.234500   0.001398   0.003956 -29.861200  -1.740200   3.027280 -44.861200   0.002839   0.001241 -29.877600   0.001839  -0.000731   2.315440 -13.601700   4.072020   4.387670 -36.300700  65.850700 -20.328200   4.363280   7.331850  -3.131640 -39.770800  10.088000 -37.284900  32.690800  63.993800  34.082800   0.002771  -0.005459  12.041400   0.002593  -0.002773  88.996500   4.998520   0.084544  84.939600  -0.000141   0.004836  63.704600   0.001368   0.000809  89.000000   0.000301  -0.008651 110.000000   0.004417   0.001802  80.000000   0.006729  -0.002736  88.996000  -5.005550  -0.090131 109.332000   0.001566   0.006360  79.999900   0.004025  -0.000219  88.984000 -10.007700  -0.179501 110.000000  -0.007095   0.000474  79.999900   0.002543   0.006770   0.528221  24.280500  -3.016830   3.974500   7.225380  -1.229490  -1.434960  -5.394500  -5.938140   0.000000   0.000000   0.000000   0.626237   5.778840  -1.698080   3.791170  49.281400 -31.993000   2.883370  11.536400   5.966350  -0.000000   0.000000  -0.000000
  8.787960  90.083300   0.962828   4.450000 -27.375200  24.545800  -3.562610  11.418300   5.758340  -8.555450  22.380800  12.619000   6.644500   1.503120  -0.175131  10.942600   2.925460 -21.661000  -4.390020 -10.574900  -6.118120 -64.815900  27.876000 -11.028800   2.721880   3.433830 -10.649700  11.553000   4.896220   1.776790  41.562200  35.893000 -71.432100 -28.456700  -0.001391  -0.000200  -9.228340   0.034844  -0.010136 -27.706300   4.717030  -8.886740 -22.968200  -0.002137   0.000881 -16.077800  -0.098520  -0.044626 -27.666300  -1.620850   3.086970 -30.284500   0.003652   0.002587 -20.169500  -0.002316   0.000623 -28.108400  -1.644790   3.074300 -33.056100   0.001862   0.002005 -22.015400   0.001396   0.003955 -29.680500  -1.728240   3.026950 -44.590100   0.002835   0.001240 -29.697000   0.001836  -0.000731   2.362700 -13.614300   4.105220   4.039880 -36.129000  65.787800 -20.177300   4.684160   7.116760  -3.301980 -39.615800  10.044900 -37.337900  32.794500  64.083300  34.107700   0.002606  -0.005481  12.053900   0.002976  -0.002766  88.996500   4.998490   0.084508  84.853000  -0.000184   0.004980  63.639800   0.001316   0.000714  89.000000   0.000278  -0.008609 110.000000   0.004270   0.001965  80.000000   0.006582  -0.002641  88.996000  -5.005570  -0.090163 109.258000   0.001491   0.006249  79.999900   0.003912  -0.000109  88.984000 -10.007600  -0.179582 110.000000  -0.007121   0.000505  79.999900   0.002601   0.006742   0.416587  24.317200  -3.141410   3.896880   7.148960  -1.038260  -1.413890  -5.420940  -5.860670   0.000000   0.000000   0.000000   0.789189   5.911990  -1.645700   3.316350  49.073200 -31.631300   2.974630  11.411500   5.646790  -0.000000   0.000000   0.000000
  8.891220  90.146500   0.867561   4.426070 -27.316300  24.371200  -3.543900  11.400200   5.742430  -8.510240  22.348400  12.580000   6.623070   1.426550  -0.165581  10.898800   2.777410 -21.599600  -4.454410 -10.584500  -6.189110 -64.773900  27.878100 -10.691100   2.638440   3.274100 -10.601600  11.649000   4.904630   1.751350  41.512900  35.756100 -71.162300 -28.447900  -0.001395  -0.000193  -9.223940   0.056169  -0.020171 -27.650000   4.630700  -8.761070 -22.913000  -0.002136   0.000887 -16.039100   0.025687   0.003158 -27.653800  -1.617450   3.083160 -30.211400   0.003650   0.002587 -20.120800  -0.002316   0.000624 -28.086000  -1.640660   3.070860 -32.883600   0.001862   0.002006 -21.900500   0.001394   0.003954 -29.596200  -1.720990   3.026630 -44.462100   0.002832   0.001240 -29.611800   0.001834  -0.000731   2.400560 -13.618100   4.147270   3.739240 -35.924000  65.743100 -20.011900   5.037520   6.892620  -3.490680 -39.387700   9.955540 -37.310000  32.814900  64.103500  34.149700   0.002439  -0.005500  12.074900   0.003358  -0.002756  88.996500   4.998460   0.084472  84.810600  -0.000241   0.005119  63.608000   0.001258   0.000615  89.000000   0.000254  -0.008567 110.000000   0.004118   0.002130  80.000000   0.006430  -0.002544  88.996000  -5.005580  -0.090193 109.221000   0.001415   0.006133  79.999900   0.003797  -0.000000  88.984000 -10.007600  -0.179662 110.000000  -0.007146   0.000538  79.999900   0.002657   0.006713   0.302394  24.353900  -3.265650   3.803190   7.085290  -0.821553  -1.392530  -5.447900  -5.766220   0.000000   0.000000   0.000000   0.917119   6.050840  -1.574540   2.856950  48.830200 -31.236100   3.098560  11.240300   5.361400  -0.000000   0.000000   0.000000
